<?xml version="1.0" encoding="UTF-8" standalone="no"?>
<svg
   xmlns:dc="http://purl.org/dc/elements/1.1/"
   xmlns:cc="http://creativecommons.org/ns#"
   xmlns:rdf="http://www.w3.org/1999/02/22-rdf-syntax-ns#"
   xmlns:svg="http://www.w3.org/2000/svg"
   xmlns="http://www.w3.org/2000/svg"
   xmlns:sodipodi="http://sodipodi.sourceforge.net/DTD/sodipodi-0.dtd"
   xmlns:inkscape="http://www.inkscape.org/namespaces/inkscape"
   width="135.46666mm"
   height="135.46666mm"
   viewBox="0 0 135.46666 135.46666"
   version="1.1"
   id="svg8"
   inkscape:version="1.0.1 (3bc2e813f5, 2020-09-07)"
   sodipodi:docname="AboutUs.svg">
  <defs
     id="defs2" />
  <sodipodi:namedview
     id="base"
     pagecolor="#ffffff"
     bordercolor="#666666"
     borderopacity="1.0"
     inkscape:pageopacity="0.0"
     inkscape:pageshadow="2"
     inkscape:zoom="0.7"
     inkscape:cx="272.92115"
     inkscape:cy="274.5035"
     inkscape:document-units="mm"
     inkscape:current-layer="layer1"
     inkscape:document-rotation="0"
     showgrid="false"
     fit-margin-top="0"
     fit-margin-left="0"
     fit-margin-right="0"
     fit-margin-bottom="0"
     inkscape:window-width="1920"
     inkscape:window-height="1017"
     inkscape:window-x="-8"
     inkscape:window-y="-8"
     inkscape:window-maximized="1" />
  <metadata
     id="metadata5">
    <rdf:RDF>
      <cc:Work
         rdf:about="">
        <dc:format>image/svg+xml</dc:format>
        <dc:type
           rdf:resource="http://purl.org/dc/dcmitype/StillImage" />
        <dc:title></dc:title>
      </cc:Work>
    </rdf:RDF>
  </metadata>
  <g
     inkscape:label="Capa 1"
     inkscape:groupmode="layer"
     id="layer1"
     transform="translate(-38.477975,-73.629764)">
    <path
       d="m 106.21131,169.58532 a 22.577778,22.577778 0 1 1 22.57778,-22.57778 22.577778,22.577778 0 0 1 -22.57778,22.57778 z m 33.86666,22.57777 A 16.933333,16.933333 0 0 0 123.14464,175.22976 H 89.277975 a 16.933333,16.933333 0 0 0 -16.933333,16.93333 v 16.93334 h 67.733328 z m 0,-73.37777 a 22.577778,22.577778 0 1 1 22.57778,-22.577782 22.577778,22.577778 0 0 1 -22.57778,22.577782 z m -67.733328,0 A 22.577778,22.577778 0 1 1 94.922419,96.207538 22.577778,22.577778 0 0 1 72.344642,118.78532 Z m 0,28.22222 a 33.686044,33.686044 0 0 1 8.675511,-22.57778 H 55.411308 A 16.933333,16.933333 0 0 0 38.477975,141.3631 v 16.93333 h 35.836578 a 33.702978,33.702978 0 0 1 -1.969911,-11.28889 z m 65.763418,11.28889 h 35.83658 V 141.3631 A 16.933333,16.933333 0 0 0 157.0113,124.42976 h -25.60884 a 33.595733,33.595733 0 0 1 6.7056,33.86667 z"
       id="path843"
       style="fill:#ffffff;stroke-width:5.64444" />
  </g>
</svg>
